<?xml version="1.0" encoding="utf-8"?>
<!-- Generator: Adobe Illustrator 24.3.0, SVG Export Plug-In . SVG Version: 6.00 Build 0)  -->
<svg version="1.1" id="Layer_1" xmlns="http://www.w3.org/2000/svg" xmlns:xlink="http://www.w3.org/1999/xlink" x="0px" y="0px"
	 viewBox="0 0 350 350" enable-background="new 0 0 350 350" xml:space="preserve">
<g>
	<path fill="#2AA9E1" d="M97.051,222.809c0.018,0.473,0.107,0.896,0.158,1.339c-30.426-14.822-27.15,52.521-45.686,73.268
		c21.918,9.084,83.381-12.922,71.586-45.959c1.149,0.28,2.36,0.481,3.713,0.481c8.775,0,20.736-6.113,50.576-35.947
		c23.416-23.42,57.551-58.141,83.575-89.175c33.908-40.444,43.963-62.108,33.63-72.441c-1.757-1.755-4.92-3.848-10.044-3.848
		c-21.105,0-67.855,37.334-151.566,121.052C102.674,201.892,96.697,213.982,97.051,222.809z M284.668,72.539
		c-3.43,8.033-12.011,22.209-32.621,46.791c-24.24,28.916-55.736,61.188-78.748,84.281c-2.201-3.62-5.084-7.495-8.418-11.285
		L284.668,72.539z M276.559,64.177L156.685,184.054c-3.582-3.188-7.404-6.062-11.294-8.386
		C223.433,97.955,259.844,71.061,276.559,64.177z M164.733,212.131c-19.115,18.683-31.866,28.16-37.911,28.16
		c-1.94,0-3.226-1.291-6.143-4.715c-1.007-1.186-2.153-2.531-3.45-3.828c-1.293-1.292-2.642-2.439-3.821-3.451
		c-3.301-2.803-4.648-4.128-4.717-5.951c-0.237-5.936,9.235-18.745,28.151-38.095C148.166,189.951,159.934,202.72,164.733,212.131z"
		/>
</g>
</svg>
